<?xml version="1.0" encoding="UTF-8" standalone="no"?>
<!-- Created with Inkscape (http://www.inkscape.org/) -->

<svg
   xmlns:dc="http://purl.org/dc/elements/1.1/"
   xmlns:cc="http://creativecommons.org/ns#"
   xmlns:rdf="http://www.w3.org/1999/02/22-rdf-syntax-ns#"
   xmlns:svg="http://www.w3.org/2000/svg"
   xmlns="http://www.w3.org/2000/svg"
   xmlns:sodipodi="http://sodipodi.sourceforge.net/DTD/sodipodi-0.dtd"
   xmlns:inkscape="http://www.inkscape.org/namespaces/inkscape"
   width="1000"
   height="248.26062"
   id="svg2"
   version="1.1"
   inkscape:version="0.48.2 r9819"
   sodipodi:docname="New document 1">
  <defs
     id="defs4">
    <clipPath
       id="clipPath3079"
       clipPathUnits="userSpaceOnUse">
      <path
         id="path3081"
         d="m 0,0 1920,0 0,1080 L 0,1080 0,0 z"
         inkscape:connector-curvature="0" />
    </clipPath>
    <clipPath
       id="clipPath3063"
       clipPathUnits="userSpaceOnUse">
      <path
         id="path3065"
         d="m 0,0 1920,0 0,1080 L 0,1080 0,0 z"
         inkscape:connector-curvature="0" />
    </clipPath>
    <clipPath
       id="clipPath3055"
       clipPathUnits="userSpaceOnUse">
      <path
         id="path3057"
         d="m 254.94,1080.24 1408,0 0,-586 -1408,0 0,586 z"
         inkscape:connector-curvature="0" />
    </clipPath>
    <clipPath
       id="clipPath3035"
       clipPathUnits="userSpaceOnUse">
      <path
         id="path3037"
         d="m 0,0 1920,0 0,1080 L 0,1080 0,0 z"
         inkscape:connector-curvature="0" />
    </clipPath>
    <clipPath
       id="clipPath3023"
       clipPathUnits="userSpaceOnUse">
      <path
         id="path3025"
         d="m 1386,894 427,0 0,106 -427,0 0,-106 z"
         inkscape:connector-curvature="0" />
    </clipPath>
    <clipPath
       id="clipPath3015"
       clipPathUnits="userSpaceOnUse">
      <path
         id="path3017"
         d="m 1386.042,999.672 426.942,0 0,-105.672 -426.942,0 0,105.672 z"
         inkscape:connector-curvature="0" />
    </clipPath>
    <clipPath
       id="clipPath2999"
       clipPathUnits="userSpaceOnUse">
      <path
         id="path3001"
         d="m 0,0 1920,0 0,1080 L 0,1080 0,0 z"
         inkscape:connector-curvature="0" />
    </clipPath>
  </defs>
  <sodipodi:namedview
     id="base"
     pagecolor="#ffffff"
     bordercolor="#666666"
     borderopacity="1.0"
     inkscape:pageopacity="0.0"
     inkscape:pageshadow="2"
     inkscape:zoom="0.7"
     inkscape:cx="662.68331"
     inkscape:cy="-203.10944"
     inkscape:document-units="px"
     inkscape:current-layer="g2993"
     showgrid="false"
     fit-margin-left="0.5"
     fit-margin-bottom="0.5"
     fit-margin-top="0.5"
     fit-margin-right="0.5"
     inkscape:window-width="1920"
     inkscape:window-height="1028"
     inkscape:window-x="-8"
     inkscape:window-y="-8"
     inkscape:window-maximized="1" />
  <metadata
     id="metadata7">
    <rdf:RDF>
      <cc:Work
         rdf:about="">
        <dc:format>image/svg+xml</dc:format>
        <dc:type
           rdf:resource="http://purl.org/dc/dcmitype/StillImage" />
        <dc:title></dc:title>
      </cc:Work>
    </rdf:RDF>
  </metadata>
  <g
     inkscape:label="Layer 1"
     inkscape:groupmode="layer"
     id="layer1"
     transform="translate(-907.05252,157.89846)">
    <g
       transform="matrix(1.25,0,0,-1.25,-825,1207.3622)"
       inkscape:label="InvestorPresentation"
       id="g2993">
      <g
         id="g3011"
         transform="matrix(1.8719176,0,0,1.8719176,-1208.5144,-779.4943)">
        <g
           clip-path="url(#clipPath3015)"
           id="g3013">
          <g
             id="g3019">
            <g
               clip-path="url(#clipPath3023)"
               id="g3021">
              <g
                 transform="translate(1665.8521,938.4882)"
                 id="g3027">
                <path
                   id="path3029"
                   style="fill:#100f0d;fill-opacity:1;fill-rule:nonzero;stroke:none"
                   d="M 0,0 C -1.216,0 -1.699,1.401 -0.314,2.995 4.115,6.143 5.857,7.114 6.096,7.233 8.951,7.233 3.483,0 0,0 z m 145.407,15.815 c -0.254,0.214 -0.509,0.382 -0.762,0.527 -0.058,0.044 -0.11,0.088 -0.18,0.132 -2.222,1.43 -4.652,0.794 -4.652,0.794 0,0 0.457,-0.831 -1.803,-2.676 -0.14,-0.114 -0.243,-0.214 -0.327,-0.307 -0.065,-0.053 -0.129,-0.106 -0.194,-0.159 -8.225,-6.696 -19.192,-12.007 -30.626,-14.247 3.699,2.172 12.459,10.447 6.372,14.91 -3.549,2.603 -9.84,1.46 -15.777,-1.52 0.688,1.109 2.321,3.472 1.663,6.311 -0.658,2.839 -6.096,3.662 -9.114,2.59 -0.101,-2.935 -0.57,-4.497 -1.082,-5.142 C 75.612,5.323 58.192,-0.895 56.766,0.528 c -1.16,1.158 2.737,5.72 4.031,7.541 1.079,1.52 1.108,3.368 0.342,4.761 -1.196,2.176 -3.433,2.304 -7.562,1.402 -5.709,-0.972 -9.76,1.069 -13.171,6.262 -1.674,2.547 -5.743,2.036 -7.836,0.642 0.521,-1.645 0.38,-3.309 -0.114,-4.993 -3.504,-8.114 -14.079,-8.17 -18.079,-5.416 -0.57,1.698 -2.071,4.836 -5.09,5.296 C -0.048,17.448 -3.256,11.728 -4.786,9.985 -8.102,6.204 -30.549,-3.609 -35.796,0.65 c -3.862,3.133 -0.615,14.534 6.755,25.952 10.927,17.237 15.878,17.035 17.625,15.291 1.079,-1.078 2.137,-3.468 -0.06,-7.693 -0.159,-0.305 -0.315,-0.589 -0.471,-0.868 -3.775,-6.188 -5.245,-5.873 -5.245,-5.873 -1.233,-3.717 0.344,-5.744 1.511,-6.676 1.262,-1.242 3.075,-0.818 3.629,-0.628 1.851,0.635 2.997,2.255 4.058,3.899 5.282,8.183 8.576,21.191 -0.078,25.895 -6.195,3.367 -16.624,-1.18 -28.164,-19.855 -10.25,-16.588 -13.149,-29.651 -5.758,-35.842 8.997,-7.535 27.906,2.407 34.126,5.284 -0.173,-1.257 0.315,-7.558 6.564,-7.204 7.997,0.469 12.945,7.353 15.071,10.866 C 16.883,1.395 30.536,-1.19 38.819,11.235 39.71,10.481 44.698,6.859 51.347,6.859 48.995,2.56 45.97,-2.597 50.442,-6.134 c 6.271,-4.957 27.758,6.98 34.017,10.659 -3.556,-6.463 -9.743,-21.079 -15.987,-34.04 -2.57,-5.336 -6.153,-12.509 -2.381,-14.416 2.931,-1.481 7.33,0.048 7.994,3.888 0.867,5.023 5.724,19.033 9.17,26.616 6.549,14.545 12.438,22.079 22.382,22.079 -0.617,-1.186 -0.803,-2.118 -4.108,-5.415 -3.603,-3.597 -7.628,-3.391 -7.423,-7.271 0.12,-2.286 2.466,-2.929 3.119,-3.106 5.187,-1.397 19.547,2.862 25.251,4.945 6.56,2.395 15.481,6.774 22.081,10.976 3.115,1.984 3.41,4.873 0.85,7.034 z M -78.764,30.426 c -5.522,-0.408 -12.204,-2.239 -14.681,-7.777 -2.051,-4.58 -0.435,-9.407 3.868,-14.828 2.76,-3.364 5.285,-6.23 6.003,-7.01 -1.985,-0.418 -6.309,-0.267 -10.65,0.526 -0.016,0.003 -0.036,0.006 -0.054,0.01 -0.991,0.183 -1.98,0.402 -2.944,0.652 -2.451,0.773 -3.124,1.759 -3.124,1.759 l -0.358,-0.262 c 0,0.01 0,0.016 0,0.016 l 0.358,0.246 c -1.659,-0.228 -3.038,-1.38 -4.016,-2.651 -0.978,-1.271 -1.984,-3.73 -1.131,-4.911 0.727,-1.006 2.17,-1.558 4.917,-1.651 4.246,-0.2 15.686,-1.711 19.914,-2.183 3.264,-0.365 5.459,1.999 6.1,3.556 0.865,2.074 -0.026,4.361 -1.122,5.625 -5.428,6.263 -13.031,13.104 -10.272,18.823 1.264,2.621 7.371,2.093 9.387,1.495 4.302,-1.279 6.437,0.277 7.415,3.156 0.63,1.851 -0.495,6.082 -9.61,5.409 z m -111.874,-7.209 c 0.772,-0.771 -0.876,-2.508 -2.327,-3.45 -3.981,-2.581 -7.99,-4.077 -10.85,-5.134 3.104,6.349 12.091,10.093 13.177,8.584 z M -98.394,9.358 c 2.17,1.213 3.038,3.724 1.302,5.803 -1.736,2.078 -5.169,1.905 -6.701,0.98 -1.281,-0.772 -2.768,-2.105 -7.187,-2.333 -4.16,-0.214 -5.832,1.569 -8.46,1.569 -2.939,0 -4.125,-2.06 -7.763,-6.587 -1.854,-2.305 -6.021,-7.606 -7.927,-7.606 -1.616,0 -2.232,4.645 -2.232,10.686 0,2.745 -1.211,4.971 -4.339,4.763 -2.604,-0.173 -3.038,-3.551 -4.399,-5.137 -4.077,-4.743 -7.354,-9.379 -9.019,-9.379 -2.052,0 -2.843,4.48 -2.843,7.934 0,0 0.639,5.456 -4.308,6.409 -2.151,0.413 -4.387,-0.778 -4.387,-0.778 0.204,-0.413 0.265,-0.839 0.225,-1.265 -0.627,-2.288 -4.927,-5.554 -4.927,-5.554 l 0.001,0 c -4.6,-3.368 -13.785,-9.288 -22.068,-9.727 -9.676,-0.513 -11.37,4.565 -11.708,6.783 8.339,3.057 13.899,6.544 17.495,9.328 3.817,2.954 6.337,6.227 6.115,9.431 -0.302,4.337 -4.243,5.905 -7.368,5.905 -6.726,0 -17.89,-2.896 -23.259,-17.623 -1.155,-0.372 -3.895,-0.39 -5.356,-0.011 -1.948,0.507 -1.917,1.339 -1.917,1.339 -1.824,-0.47 -2.611,-1.361 -3.252,-2.939 -1.027,-2.525 0.33,-4.7 2.415,-5.857 1.509,-0.838 3.896,-1.369 7.266,-0.973 0.474,-4.464 3.442,-12.608 19.284,-11.993 12.582,0.488 27.31,10.823 28.632,11.631 0.559,-2.579 2.335,-11.829 7.684,-11.829 6.425,0 13.014,9.575 13.014,9.575 0,0 1.676,-9.638 8.133,-9.638 5.386,0 12.146,8.374 13.832,10.368 1.403,1.66 4.127,4.85 5.616,4.85 1.457,0.247 4.344,-1.682 12.618,-0.033 0.186,0.037 3.925,0.867 5.788,1.908 z M -200.96,55.841 c 0.579,1.528 0.077,3.387 -0.872,4.098 -3.153,2.361 -6.014,1.043 -8.153,-1.296 -2.509,-2.745 -5.768,-8.698 -7.147,-10.922 -12.668,-20.438 -22.325,-42.28 -22.325,-42.28 0,0 -3.353,10.171 -3.817,18.252 -0.438,7.619 -0.786,14.892 -1.113,18.454 -0.106,1.426 -0.709,3.657 -3.206,4.474 -1.925,0.629 -4.731,0.875 -6.698,0.148 -0.158,-2.432 -0.262,-3.608 -1.277,-6.484 -1.013,-2.874 -7.544,-15.56 -8.654,-17.533 -5.68,-10.098 -13.172,-22.657 -13.608,-23.466 -1.53,-2.828 -3.651,-6.683 -0.015,-8.046 3.635,-1.363 6.822,-0.636 8.392,1.686 0.303,0.447 0.719,1.283 0.719,1.283 0,0 -1.055,0.867 1.207,6.137 0.672,1.392 1.474,3.015 2.371,4.804 0.174,0.318 0.355,0.645 0.543,0.981 0.271,0.483 0.461,0.906 0.606,1.296 3.73,7.354 8.698,16.835 13.131,25.15 -0.034,-4.84 0.373,-10.828 1.037,-15.178 1.012,-8.484 3.095,-12.063 3.871,-18.83 -0.155,-4.572 0.298,-5.361 3.636,-6.281 3.121,-0.86 4.94,0.002 6.112,2.881 4.508,11.361 17.467,37.456 28.474,51.614 1.151,1.481 5.523,5.732 6.786,9.058"
                   inkscape:connector-curvature="0" />
              </g>
            </g>
          </g>
        </g>
      </g>
    </g>
  </g>
</svg>
