<svg xmlns="http://www.w3.org/2000/svg" 
  xmlns:xlink="http://www.w3.org/1999/xlink" width="134" height="28.4" viewBox="0 0 134 28.4">
  <style>.st0{clip-path:url(#SVGID_2_);fill:#005499;} .st1{clip-path:url(#SVGID_4_);fill:#005499;}</style>
  <defs>
    <path id="SVGID_1_" d="M0 0h134v28.4H0z"/>
  </defs>
  <clipPath id="SVGID_2_">
    <use xlink:href="#SVGID_1_" overflow="visible"/>
  </clipPath>
  <path class="st0" d="M97.3 20.9c-.3 3-1.1 2.9-2 3.2-.8.2-.5.7 0 .7.2 0 1.7-.2 2.7-.2 1.4 0 2.8.1 3.5.1.3 0 .7-.4 0-.6-.8-.2-2.9 0-3-3.6-.1-2.6.1-11.7.1-11.7 0-.6.1-.7.2-.7.2 0 .4.4.6.6l12.6 16c1.3 1.6 1.4 1.1 1.4-.5-.1-5 .1-19 .1-19 0-2.7 2.5-1.6 2.5-2.5 0-.2-.1-.3-.3-.3-.7 0-2.7.2-3.7.2-.9 0-1.5-.1-2.4-.1-.2 0-.3.1-.3.3 0 .9 3.2-.6 3.1 3.9v13.1c0 .3 0 .8-.4 0L98.6 3.3c-.2-.2-.4-.7-.8-.7s-1.9.1-2.3.1c-.5 0-.9-.1-1.4-.1-.1 0-.5.1-.4.3.2 1.1 3.6-.2 3.7 5 0 0 0 11.7-.1 13"/>
  <path class="st0" d="M117.8 0c-.4.1-1 .6-1.3.8-.3.2-.3.6-.1.8.7 1.4 1.5 3.8-.4 6.6-.3.5-.8.6-.5.8.3.2 1.1-.4 1.5-.7 2-1.9 2.7-5.3 1.6-7.7-.3-.4-.4-.7-.8-.6M120.4 23.1c.1.6 2.7 1.7 5 1.7 7 0 8.6-3.8 8.6-6.4 0-8.3-11.8-5.3-11.8-11.2 0-2.9 2.2-4.1 4.7-4.1 2.7 0 4.9 1.7 5.7 3.9.1.3.2.9.6.9.3 0 .2-.2.2-.5L133 3c0-.3-.2-.4-.4-.4-.3 0-.5.6-1.1.5-.4-.1-1.2-.9-4.3-1-3.5 0-6.6 2.2-6.6 6.1 0 7.9 11.5 4.9 11.6 10.7 0 3.3-2.1 5-5 5-4.2 0-6.1-3.3-6.5-4.7-.2-.7-.2-1-.5-1-.3.1-.3.4-.2 1-.1-.1.3 1.3.4 3.9M83.1 3.4c6.1 0 9.8 5.5 9.8 11.3 0 5.9-3.9 9.6-8.4 9.6-6.2 0-9.8-5.6-9.8-11.6-.1-5.1 3.1-9.3 8.4-9.3m.2 22c7 0 11.9-4.7 11.9-11.9 0-6.7-4.9-11.4-11.3-11.4S72.4 7 72.4 13.6c-.1 6.8 4.1 11.8 10.9 11.8"/>
  <path class="st0" d="M58.7 4.4c0-1.2.7-1.1 1.7-1.1 2.8 0 5.6 1.4 5.6 5.2 0 3.9-3 4.5-4.2 4.5-1.3 0-3.1.2-3.1-.4V4.4zm5.9 8.9c2-.9 3.9-2.9 3.9-5.3 0-6.1-6.6-5.8-7-5.8-1.5 0-3.4.3-5 .3-1.4 0-2.1-.2-2.6-.2-.3 0-.6.2-.6.4 0 1.1 3.3-.5 3.2 2.8v16.1c0 2.4-1.7 2.2-2 2.5-.2.1-.3.5-.1.5 1.1 0 2.3-.1 3.4-.1 2.4 0 3.8.1 4.1.2.4.1.6-.4.1-.6-.6-.2-3.1.1-3.2-2.5V15c0-.3-.2-.9.7-.9 2.9 0 2.8-.3 3.3.5 0 0 5.5 6.7 8.5 9.5 2.6 2.4 5.8 4.2 7.9 4.3 2.8.1 4.3-.3 4.3-.7 0-.8-2.4 1.4-9.1-3.9-4-3.2-8.9-9.2-9.7-10.2-.1-.2-.1-.2-.1-.3"/>
  <path class="st0" d="M40.4 4.5c0-1.2.6-1.1 1.7-1.2 3-.1 5.8 1.3 5.8 5.2 0 3.9-2.8 4.6-4 4.6-1.4 0-3.4.2-3.4-.4l-.1-8.2zm5.8 8.8c2-.9 4.2-2.9 4.2-5.4 0-6.1-7.1-5.7-7.5-5.7-1.5 0-3.2.3-4.9.3-1.5 0-2-.2-2.5-.2-.3 0-.6.2-.6.4 0 .9 3.2-.5 3.1 2.8v16.1c0 2.5-1.7 2.4-2.3 2.4-.7 0 .3.7.5.7 1.1 0 2-.3 3.1-.3 2.4 0 4 .3 4.3.3.7.1.8-.4.2-.5-1-.2-3.4-.2-3.4-2.8v-6.3c0-.3-.2-.9.8-.9 3.3 0 3-.2 4 1.6l3.6 5.6c1.1 1.8 2.2 3.4 4.4 3.4.3 0 2.3 0 2.2-.3 0-.4.4-.6-.5-.5-.7.1-2-.4-3.4-2.6l-5.2-7.8c-.2-.2-.1-.3-.1-.3"/>
  <path class="st0" d="M25.3 5.9c.2-.4.3-.4.5 0l3 8.2c.1.4.2.6-.5.6h-6.1c-.4 0-.6-.1-.4-.6l3.5-8.2zm5.5 13.8c.3.9.5 1.9.8 2.5.6 1.4-.9 1.9-1.5 1.9-.5 0-.4.8.5.6.8-.1 1.8-.2 2.5-.2 1.2 0 2.2.2 3.4.2.2 0 .8-.5.3-.6-.4-.1-1.5-.1-2.2-1.3-.6-1.1-1.1-2.4-1.5-3.6L26.9 2.5c-.1-.3-.3-1.2-.6-1.2-.4 0-.5.5-2.2 4.6l-7 16.5c-.8 1.8-2.3 1.2-2.3 1.9 0 .2.3.4.5.4.8 0 1.6-.2 2.4-.2.8 0 1.6 0 2.7.2.7.1.9-.5.3-.6-.8-.2-2.1-.6-1.9-2 .2-1.9 1.9-5.3 1.9-5.3.3-.7 1-.9 1.5-.9h6.4c.8 0 1 .3 1.3 1.1l.9 2.7z"/>
  <path class="st0" d="M4.8 5.8c0-1.8-.2-2.3 1.8-2.4 3.7-.1 6.3 2 6.2 5.4 0 1.8-1.3 3.5-5.3 3.4-2.8 0-2.7-.2-2.7-1.2V5.8zm0 8c0-.3-.1-.8 2.2-.8 7.1 0 7.2 4.2 7.2 6.2 0 1.9-.6 4.8-5.3 4.9-4.4.1-4.1-.9-4.1-3.1v-7.2zm-2.2 7.3c0 2.5-1.1 2.7-1.4 2.8-.6.2-1.2 0-1.1.6 0 .3.8.2.9.2 1.4 0 2.3-.1 3.7-.1 1 0 3.6.3 4.7.3 6 0 7.3-4.5 7.3-6.9 0-4.5-4.8-5.1-4.8-5.6 0-.2 3-1.4 3-4.6 0-2.3-1.5-5.4-6.9-5.4-2.5 0-3 .2-4.2.2s-3-.3-3.6-.3c-.2.1-.4.5.2.8.6.2 2.2.1 2.2 2.5v15.5z"/>
</svg>