<svg xmlns="http://www.w3.org/2000/svg" x="0" y="0" width="202.2" height="104" viewBox="0 0 202.2 104" xml:space="preserve">
  <style type="text/css">.grey{fill:#4D4D4E;} .blue{fill:#2A6886;} .white{fill:#FFFFFF;}</style>
  <path d="M29.9 102.8V86.6l-8.7 12.5h-1.4l-8.7-12.5v16.2H8.8V83.1h2.4l9.3 13.5 9.3-13.5h2.4v19.7H29.9zM38.3 102.8V83.1h2.3v19.7H38.3zM46.7 102.8V83.1h8.1c1.9 0 3.6 0.3 5 0.8 1.4 0.5 2.6 1.2 3.6 2.1 1 0.9 1.7 1.9 2.1 3.1s0.7 2.5 0.7 3.8c0 1.5-0.3 2.9-0.8 4.1 -0.5 1.2-1.3 2.3-2.3 3.1 -1 0.9-2.2 1.5-3.6 2 -1.4 0.5-3 0.7-4.7 0.7H46.7zM63.8 92.9c0-1.2-0.2-2.3-0.6-3.3 -0.4-1-1-1.8-1.8-2.6s-1.7-1.3-2.8-1.7c-1.1-0.4-2.4-0.6-3.9-0.6H49v16.3h5.7c1.5 0 2.8-0.2 3.9-0.6 1.1-0.4 2.1-1 2.8-1.7 0.8-0.7 1.3-1.6 1.7-2.6C63.6 95.2 63.8 94.1 63.8 92.9zM84.8 86.8c-0.7-0.6-1.6-1.1-2.7-1.5s-2.4-0.6-3.8-0.6c-2.1 0-3.7 0.3-4.6 1 -1 0.7-1.4 1.6-1.4 2.7 0 0.6 0.1 1.1 0.4 1.5 0.3 0.4 0.7 0.7 1.2 1 0.5 0.3 1.2 0.5 2.1 0.7 0.8 0.2 1.8 0.4 3 0.6 1.3 0.2 2.4 0.5 3.4 0.7 1 0.3 1.9 0.6 2.6 1 0.7 0.4 1.3 0.9 1.6 1.5 0.4 0.6 0.6 1.3 0.6 2.2 0 0.9-0.2 1.7-0.6 2.4 -0.4 0.7-1 1.2-1.8 1.7 -0.8 0.4-1.7 0.8-2.7 1 -1.1 0.2-2.2 0.3-3.4 0.3 -3.7 0-6.9-1-9.6-2.9l1.1-1.6c0.9 0.8 2.1 1.4 3.5 1.9 1.5 0.5 3.1 0.8 4.9 0.8 1.9 0 3.4-0.3 4.5-0.8 1.1-0.6 1.6-1.4 1.6-2.6 0-0.6-0.2-1.1-0.5-1.5 -0.3-0.4-0.8-0.8-1.4-1.1 -0.6-0.3-1.4-0.6-2.3-0.8 -0.9-0.2-2-0.4-3.1-0.7 -1.3-0.2-2.4-0.5-3.3-0.8 -0.9-0.3-1.7-0.6-2.4-1 -0.6-0.4-1.1-0.9-1.4-1.4 -0.3-0.5-0.5-1.2-0.5-2 0-0.9 0.2-1.7 0.6-2.4 0.4-0.7 1-1.3 1.7-1.8 0.8-0.5 1.6-0.8 2.7-1.1 1-0.2 2.2-0.4 3.4-0.4 1.6 0 3 0.2 4.2 0.6 1.2 0.4 2.4 1 3.4 1.7L84.8 86.8zM108.1 84.8h-8.5v18h-2.4v-18h-8.5v-1.7h19.4V84.8zM111.7 102.8V83.1h10.1c1 0 2 0.2 2.9 0.5 0.9 0.4 1.6 0.8 2.3 1.4 0.6 0.6 1.1 1.2 1.5 2 0.3 0.7 0.5 1.5 0.5 2.3 0 0.7-0.1 1.4-0.4 2.1s-0.6 1.3-1.1 1.8c-0.5 0.5-1 1-1.7 1.3 -0.7 0.4-1.4 0.6-2.2 0.7l5.9 7.6h-2.7l-5.6-7.3H114v7.3H111.7zM114 93.8h7.8c0.7 0 1.3-0.1 1.9-0.4 0.6-0.3 1.1-0.6 1.5-1 0.4-0.4 0.7-0.9 0.9-1.4 0.2-0.5 0.3-1.1 0.3-1.7 0-0.6-0.1-1.2-0.4-1.7 -0.3-0.5-0.6-1-1-1.4s-1-0.7-1.5-1c-0.6-0.2-1.2-0.4-1.9-0.4H114V93.8zM149.9 101.1v1.7h-16V83.1h15.7v1.7h-13.4v7.1h11.7v1.6h-11.7v7.5H149.9zM152 102.8l10-19.7h1.9l10 19.7h-2.5l-3.1-6.2h-10.7l-3.1 6.2H152zM162.9 85.4l-4.9 9.8h9.7L162.9 85.4zM198.5 102.8V86.6l-8.7 12.5h-1.4l-8.7-12.5v16.2h-2.3V83.1h2.4l9.3 13.5 9.3-13.5h2.4v19.7H198.5z"></path>
  <circle cx="37.5" cy="38.3" r="36.7"></circle>
  <circle class="grey" cx="102.3" cy="38.3" r="36.7"></circle>
  <circle class="blue" cx="164.4" cy="38.3" r="36.7"></circle>
  <path class="white" d="M57.5 20.3c-0.2-0.4-0.5-0.8-0.8-1.1s-0.8-0.6-1.2-0.8 -1-0.3-1.5-0.3H36.5c-3.1 0-5.9 0.5-8.5 1.5 -2.6 1-4.8 2.3-6.7 4.1 -1.9 1.7-3.4 3.8-4.5 6.2 -1.1 2.4-1.6 5-1.6 7.9v19.6h7.7v-9.6H50v9.6h7.7V21.7C57.8 21.2 57.7 20.8 57.5 20.3zM50 40.7H22.9v-2.9c0-2 0.3-3.7 0.9-5.1 0.6-1.4 1.4-2.6 2.3-3.5 0.9-0.9 2-1.7 3.1-2.2 1.1-0.5 2.2-0.9 3.2-1.2 1-0.3 1.9-0.4 2.6-0.5 0.8-0.1 1.3-0.1 1.5-0.1H50V40.7zM184.4 44c-0.3-1.1-0.8-2.2-1.3-3.1s-1.2-1.7-1.9-2.4c-0.7-0.7-1.5-1.3-2.4-1.8 1-1.3 1.7-2.7 2.1-4.1s0.7-2.8 0.7-4.1v-1.3c0-1.6-0.3-2.9-0.9-4 -0.6-1.1-1.4-2-2.3-2.7 -0.9-0.7-1.9-1.2-2.9-1.5 -1.1-0.3-2-0.5-3-0.5h-25c-0.5 0-1 0.1-1.5 0.3 -0.5 0.2-0.9 0.4-1.2 0.8 -0.3 0.3-0.6 0.7-0.8 1.1 -0.2 0.4-0.3 0.9-0.3 1.4v32.1c0 0.5 0.1 1 0.3 1.4 0.2 0.4 0.5 0.8 0.8 1.1 0.3 0.3 0.7 0.6 1.2 0.8s1 0.3 1.5 0.3h28.3c1.7 0 3.1-0.3 4.2-0.9 1.1-0.6 2.1-1.3 2.8-2.1 0.7-0.9 1.2-1.8 1.5-2.8 0.3-1 0.5-1.9 0.5-2.8v-1.4C184.9 46.4 184.7 45.1 184.4 44zM177.4 49.1c0 0.4-0.1 0.7-0.2 0.9 -0.1 0.2-0.2 0.4-0.4 0.5 -0.2 0.1-0.3 0.1-0.5 0.2 -0.2 0-0.4 0-0.5 0h-24.6v-25h21.3c1 0 1.5 0.5 1.5 1.5v1.3c0 0.9-0.1 1.8-0.4 2.5 -0.3 0.7-0.7 1.4-1.3 1.9s-1.2 0.9-2 1.2 -1.7 0.4-2.6 0.4h-13.5v7.2H171c1 0 1.9 0.1 2.6 0.4 0.8 0.3 1.5 0.7 2 1.2 0.6 0.5 1 1.2 1.3 1.9 0.3 0.7 0.5 1.6 0.5 2.5V49.1z"></path>
  <path class="white" d="M109.1 44.6c0.9 0 1.8-0.1 2.8-0.3s2-0.5 3-1c1-0.4 1.9-1 2.8-1.7 0.9-0.7 1.7-1.5 2.4-2.5 0.7-1 1.2-2.1 1.6-3.4 0.4-1.3 0.6-2.7 0.6-4.4v-4.5c0-0.9-0.2-1.8-0.5-2.8 -0.3-1-0.8-1.9-1.5-2.8 -0.7-0.9-1.6-1.6-2.7-2.2s-2.4-0.9-4-0.9h-27c-0.5 0-1 0.1-1.4 0.3 -0.4 0.2-0.8 0.4-1.1 0.8s-0.6 0.7-0.8 1.1c-0.2 0.4-0.3 0.9-0.3 1.4v35.7h7.1V44.5H93v0.1h5.1l14.8 12.8h11L109.1 44.6z"></path>
  <path class="grey" d="M113.8 30.3l-10.8-7.7c-0.3-0.2-0.7-0.3-1-0.3 -0.3 0-0.6 0.1-0.8 0.2 -0.6 0.3-1 0.9-1 1.6v3.4H75.9c-0.9 0-1.7 0.4-1.7 1v6.5c0 0.5 0.8 1 1.7 1h24.3v3.5c0 0.7 0.4 1.3 1 1.6 0.3 0.1 0.5 0.2 0.8 0.2 0.4 0 0.7-0.1 1-0.3l10.8-7.7c0.5-0.3 0.7-0.9 0.7-1.5C114.6 31.2 114.3 30.6 113.8 30.3z"></path>
</svg>