<svg xmlns="http://www.w3.org/2000/svg" viewBox="0 0 271 24">
  <path d="M251.34 7.38q0 1.77 1 1.77h12.89a5.11 5.11 0 0 1 4.22 2.21 8.44 8.44 0 0 1 1.55 5.13 8.39 8.39 0 0 1-1.56 5.12 5.09 5.09 0 0 1-4.22 2.22h-17.71v-5.56h17.7c.66 0 1-.59 1-1.78s-.33-1.79-1-1.79h-12.88a5.1 5.1 0 0 1-4.22-2.22 8.16 8.16 0 0 1-1.59-5.1 8.38 8.38 0 0 1 1.63-5.18 5 5 0 0 1 4.18-2.2H270v5.59h-17.7c-.63 0-.96.59-.96 1.79zm-13.13 1.77a5.12 5.12 0 0 1 4.23 2.21 8.5 8.5 0 0 1 1.56 5.13 8.45 8.45 0 0 1-1.55 5.12 5.11 5.11 0 0 1-4.23 2.22h-17.7v-5.56h17.68c.67 0 1-.59 1-1.78s-.33-1.79-1-1.79h-12.87a5.08 5.08 0 0 1-4.22-2.22 8.1 8.1 0 0 1-1.59-5.1 8.37 8.37 0 0 1 1.62-5.18 5 5 0 0 1 4.19-2.2H243v5.59h-17.7c-.66 0-1 .59-1 1.79s.33 1.77 1 1.77zm-38.86 0h16v5.55h-16v3.57h17.05v5.56h-21.84V0h21.89v5.59h-17.1zM174.4 7.81v16h-4.79V0h4.78l12.32 16V0h4.8v23.83h-4.8zM161.76 0h4.79v23.83h-4.79zm-8.3 9.13a5.12 5.12 0 0 1 4.22 2.21 8.44 8.44 0 0 1 1.56 5.13 8.39 8.39 0 0 1-1.56 5.12 5.1 5.1 0 0 1-4.22 2.22h-17.71v-5.54h17.7c.66 0 1-.59 1-1.78s-.33-1.79-1-1.79h-12.87a5.09 5.09 0 0 1-4.23-2.22 8.17 8.17 0 0 1-1.6-5.1 8.39 8.39 0 0 1 1.64-5.18 5 5 0 0 1 4.19-2.2h17.69v5.59h-17.7c-.66 0-1 .59-1 1.79s.33 1.77 1 1.77zm-27.6 14.68h-13.55a5 5 0 0 1-4.2-2.18 8.43 8.43 0 0 1-1.61-5.18V0h4.79v16.47c0 1.2.35 1.8 1 1.8h13.54q1 0 1-1.8V0h4.83v16.47a8.39 8.39 0 0 1-1.66 5.18 5 5 0 0 1-4.14 2.18zm-23.39-2a5.19 5.19 0 0 1-4.3 2H78.28V0h19.53a5.2 5.2 0 0 1 4.31 2 7.19 7.19 0 0 1 1.43 4.53 6.46 6.46 0 0 1-2.12 5.17 6.33 6.33 0 0 1 2.52 5.5 7 7 0 0 1-1.48 4.6zM97.81 5.59H83.07v3.62h14.74c.69 0 1-.6 1-1.81s-.31-1.81-1-1.81zm.37 9.11H83.07v3.57h15.11c.69 0 1-.59 1-1.78s-.31-1.79-1-1.79zM64 .11h7.66l1.94 23.74h-3.23zm-1.15 23.77h-8.7l-3.55-5-3.52 5h-8.53l7.88-12.32L39.06 0h8.58l3.14 5.22L53.54 0h8.71l-7.48 11.65zM29.34 24C22 24 16 18.92 16 12.19S22 0 29.34 0s13.34 5.47 13.34 12.19S36.71 24 29.34 24zm.09-19c-2.36 0-2.27 1.72-2.27 1.72V17.9s0 1.21 2.18 1.21 2.32-.95 2.32-2.12V6.75S31.8 5 29.43 5zm-22.2 5h7.69v6.77H7.14v7.16H0V0h16.13l.09 6.72h-9zm55-6.52l7 20.42h-4.16l-8.21-12.41z" fill="#fff" fill-rule="evenodd"/>
</svg>
