<svg xmlns="http://www.w3.org/2000/svg" xmlns:xlink="http://www.w3.org/1999/xlink" width="200" height="28.6" viewBox="0 0 200 28.6"><style>.st0{clip-path:url(#SVGID_2_);fill:#FFFFFF;} .st1{fill:#FFFFFF;} .st2{clip-path:url(#SVGID_4_);fill:#FFFFFF;} .st3{clip-path:url(#SVGID_6_);fill:#FFFFFF;} .st4{clip-path:url(#SVGID_6_);fill:#4DB74D;} .st5{clip-path:url(#SVGID_8_);fill:#FFFFFF;} .st6{clip-path:url(#SVGID_10_);fill:#FFFFFF;} .st7{clip-path:url(#SVGID_12_);fill:#FFFFFF;} .st8{clip-path:url(#SVGID_12_);fill:#4DB74D;}</style><defs><path id="SVGID_1_" d="M0 0h200v28.6H0z"/></defs><clipPath id="SVGID_2_"><use xlink:href="#SVGID_1_" overflow="visible"/></clipPath><path class="st0" d="M46.9 20c-.3 1.6-1.8 4.1-4.8 4.1-2.9 0-3.5-2.6-3.3-4.1.3-1.8 2-4.1 4.8-4.1 2.7 0 3.6 2.2 3.3 4.1m1.5-8l-.3 1.7H48c-.4-1-1.6-2.3-4.3-2.3-4.3 0-8.7 3.3-9.7 8.6-.8 4.6 1.4 8.6 6.5 8.6 1.9 0 4-.7 5.1-2.3h.1l-.3 1.7h4.8l3-16.1h-4.8zM55.9 12h4.5l-.4 1.7h.1c.6-.8 1.7-2.3 4.4-2.3l-.9 4.9c-2.3 0-3.9.5-4.3 3L57.7 28h-4.8l3-16z"/><path class="st1" d="M67.8 5.7L63.6 28h4.9l1.4-7.7h.1l3.1 7.7h5.4l-4.2-9 7.3-7H76l-5.6 5.8h-.1l2.3-12.1"/><g><defs><path id="SVGID_3_" d="M0 0h200v28.6H0z"/></defs><clipPath id="SVGID_4_"><use xlink:href="#SVGID_3_" overflow="visible"/></clipPath><path class="st2" d="M84.5 18.2c.4-1 1.7-2.8 4.2-2.8s3.1 1.8 3.1 2.8h-7.3zm4.8-6.8c-4.9 0-9.2 4.2-10 8.7-.9 4.8 2.3 8.5 6.9 8.5 1.6 0 3.3-.5 4.8-1.5 1.5-.9 2.9-2.3 4-4.1h-4.9c-.8.8-1.7 1.5-3.2 1.5-1.9 0-3.3-1.1-3.2-3h12c.2-.4.2-.7.3-1.3 1.1-4.9-1.8-8.8-6.7-8.8"/></g><path class="st1" d="M27.7 5.7l-8.5 12.7h-.1V5.7H15L0 28h5.8l8.5-12.7V28h4.2l8.4-12.7h.1V28h4.8V5.7"/><g><defs><path id="SVGID_5_" d="M0 0h200v28.6H0z"/></defs><clipPath id="SVGID_6_"><use xlink:href="#SVGID_5_" overflow="visible"/></clipPath><path class="st3" d="M108.4 12h-3l.9-4.8H102l-.3 1.8c-.4 2.1-1.7 2.7-3.4 2.9l-.7 3.6h2.4L97.6 28h4.8l2.3-12.4h3.1l.6-3.6z"/><path class="st4" d="M187.2 5.7h4.8l-1.5 8h.1c1-1.5 2.4-2.3 4.5-2.3 1.5 0 3.3.6 4.1 1.8 1 1.6.9 3 .4 5.9l-1.6 9h-4.8l1.6-8.7c.2-.8.6-3.4-2-3.4-2.7 0-3.1 2.4-3.3 3.2l-1.6 8.9h-4.8l4.1-22.4zM167 12h-3l.9-4.8h-4.2l-.3 1.8c-.4 2.1-1.7 2.7-3.4 2.9l-.7 3.6h2.4L156.2 28h4.8l2.3-12.4h3.1l.6-3.6zm-23.1 12.1c3 0 4.5-2.6 4.8-4.1.3-1.9-.6-4.1-3.3-4.1-2.8 0-4.4 2.3-4.8 4.1-.2 1.6.4 4.1 3.3 4.1M152 28h-4.8l.3-1.7h-.1c-1.1 1.6-3.3 2.3-5.1 2.3-5.1 0-7.3-4-6.5-8.6 1-5.2 5.4-8.6 9.7-8.6 2.6 0 3.9 1.3 4.3 2.3h.1l.3-1.7h4.8l-3 16zm-9.1-28l-9.3 5.7h2.6l-8.5 12.7h-.1V5.7h-4.1L115 18.4V5.7h-4.8V28h4.2l8.5-12.7h.1V28h4.1l15-22.3h2.4L142.9 0zm39.8 22c-1.6 3.6-5.3 6.6-9.7 6.6-4.9 0-7.9-3.8-7-8.6.9-4.7 5.2-8.5 10.1-8.5 4.3 0 7.2 2.8 7.2 6.8h-4.9c-.3-1.1-1-2.3-3.1-2.3-2.3-.1-4.1 1.8-4.6 4.1-.4 2.3.8 4.1 3.1 4.1 2 0 3.2-1.1 3.9-2.1h5z"/></g></svg>