<svg width="359" height="116" viewBox="0 0 359 116" version="1.1" xmlns="http://www.w3.org/2000/svg" xmlns:xlink="http://www.w3.org/1999/xlink">
<title>Group</title>
<desc>Created using Figma</desc>
<g id="Canvas" transform="translate(293 131)">
<g id="Group">
<g id="Group">
<g id="Group">
<g id="Vector">
<use xlink:href="#path0_fill" transform="translate(-191.787 -93.111)" fill="#53565A"/>
</g>
<g id="Vector">
<use xlink:href="#path1_fill" transform="translate(-152.83 -82.845)" fill="#53565A"/>
</g>
<g id="Vector">
<use xlink:href="#path2_fill" transform="translate(-118.238 -94.089)" fill="#53565A"/>
</g>
<g id="Vector">
<use xlink:href="#path3_fill" transform="translate(-107.134 -82.845)" fill="#53565A"/>
</g>
<g id="Vector">
<use xlink:href="#path4_fill" transform="translate(-74.96 -82.734)" fill="#53565A"/>
</g>
<g id="Vector">
<use xlink:href="#path5_fill" transform="translate(-47.497 -90.912)" fill="#53565A"/>
</g>
<g id="Vector">
<use xlink:href="#path6_fill" transform="translate(-21.572 -82.506)" fill="#53565A"/>
</g>
<g id="Vector">
<use xlink:href="#path7_fill" transform="translate(-10.445 -82.845)" fill="#53565A"/>
</g>
<g id="Vector">
<use xlink:href="#path8_fill" transform="translate(22.269 -82.625)" fill="#53565A"/>
</g>
<g id="Vector">
<use xlink:href="#path9_fill" transform="translate(-21.837 -94.104)" fill="#53565A"/>
</g>
</g>
<g id="Group">
<g id="Vector">
<use xlink:href="#path10_fill" transform="translate(-239.455 -95.538)" fill="#D50032"/>
</g>
<g id="Vector">
<use xlink:href="#path11_fill" transform="translate(-239.455 -59.968)" fill="#D50032"/>
</g>
<g id="Vector">
<use xlink:href="#path12_fill" transform="translate(-257.243 -77.75)" fill="#D50032"/>
</g>
<g id="Vector">
<use xlink:href="#path13_fill" transform="translate(-252.028 -90.3287)" fill="#D50032"/>
</g>
<g id="Vector">
<use xlink:href="#path14_fill" transform="translate(-226.873 -65.1772)" fill="#D50032"/>
</g>
<g id="Vector">
<use xlink:href="#path15_fill" transform="translate(-252.029 -65.1772)" fill="#D50032"/>
</g>
<g id="Vector">
<use xlink:href="#path16_fill" transform="translate(-226.873 -90.3287)" fill="#D50032"/>
</g>
<g id="Vector">
<use xlink:href="#path17_fill" transform="translate(-238.737 -106.541)" fill="#D50032"/>
</g>
<g id="Vector">
<use xlink:href="#path18_fill" transform="translate(-238.737 -47.541)" fill="#D50032"/>
</g>
<g id="Vector">
<use xlink:href="#path19_fill" transform="translate(-268.244 -77.031)" fill="#D50032"/>
</g>
<g id="Vector">
<use xlink:href="#path20_fill" transform="translate(-259.607 -97.8937)" fill="#D50032"/>
</g>
<g id="Vector">
<use xlink:href="#path21_fill" transform="translate(-217.875 -56.185)" fill="#D50032"/>
</g>
<g id="Vector">
<use xlink:href="#path22_fill" transform="translate(-259.607 -56.185)" fill="#D50032"/>
</g>
<g id="Vector">
<use xlink:href="#path23_fill" transform="translate(-217.876 -97.8937)" fill="#D50032"/>
</g>
<g id="Vector">
<use xlink:href="#path24_fill" transform="translate(-248.247 -100.63)" fill="#D50032"/>
</g>
<g id="Vector">
<use xlink:href="#path25_fill" transform="translate(-228.324 -52.5269)" fill="#D50032"/>
</g>
<g id="Vector">
<use xlink:href="#path26_fill" transform="translate(-262.333 -66.6199)" fill="#D50032"/>
</g>
<g id="Vector">
<use xlink:href="#path27_fill" transform="translate(-262.333 -86.5454)" fill="#D50032"/>
</g>
<g id="Vector">
<use xlink:href="#path28_fill" transform="translate(-248.247 -52.5269)" fill="#D50032"/>
</g>
<g id="Vector">
<use xlink:href="#path29_fill" transform="translate(-228.326 -100.63)" fill="#D50032"/>
</g>
</g>
<g id="Group">
<g id="Group">
<g id="Vector">
<use xlink:href="#path30_fill" transform="translate(-238.454 -116.121)" fill="#97999B"/>
</g>
<g id="Vector">
<use xlink:href="#path31_fill" transform="translate(-237.73 -124.271)" fill="#97999B"/>
</g>
<g id="Vector">
<use xlink:href="#path32_fill" transform="translate(-237.014 -131)" fill="#97999B"/>
</g>
<g id="Vector">
<use xlink:href="#path33_fill" transform="translate(-238.207 -36.553)" fill="#97999B"/>
</g>
<g id="Vector">
<use xlink:href="#path34_fill" transform="translate(-237.493 -26.968)" fill="#97999B"/>
</g>
<g id="Vector">
<use xlink:href="#path35_fill" transform="translate(-236.786 -18.821)" fill="#97999B"/>
</g>
<g id="Vector">
<use xlink:href="#path36_fill" transform="translate(-266.533 -104.387)" fill="#97999B"/>
</g>
<g id="Vector">
<use xlink:href="#path37_fill" transform="translate(-272.094 -109.939)" fill="#97999B"/>
</g>
<g id="Vector">
<use xlink:href="#path38_fill" transform="translate(-276.647 -114.491)" fill="#97999B"/>
</g>
<g id="Vector">
<use xlink:href="#path39_fill" transform="translate(-210.11 -48.2897)" fill="#97999B"/>
</g>
<g id="Vector">
<use xlink:href="#path40_fill" transform="translate(-203.125 -41.3108)" fill="#97999B"/>
</g>
<g id="Vector">
<use xlink:href="#path41_fill" transform="translate(-278.107 -76.222)" fill="#97999B"/>
</g>
<g id="Vector">
<use xlink:href="#path42_fill" transform="translate(-286.266 -75.51)" fill="#97999B"/>
</g>
<g id="Vector">
<use xlink:href="#path43_fill" transform="translate(-293 -74.789)" fill="#97999B"/>
</g>
<g id="Vector">
<use xlink:href="#path44_fill" transform="translate(-266.374 -48.1187)" fill="#97999B"/>
</g>
<g id="Vector">
<use xlink:href="#path45_fill" transform="translate(-271.935 -41.141)" fill="#97999B"/>
</g>
<g id="Vector">
<use xlink:href="#path46_fill" transform="translate(-276.487 -35.1749)" fill="#97999B"/>
</g>
<g id="Vector">
<use xlink:href="#path47_fill" transform="translate(-210.277 -104.551)" fill="#97999B"/>
</g>
</g>
<g id="Group">
<g id="Vector">
<use xlink:href="#path48_fill" transform="translate(-251.325 -108.817)" fill="#97999B"/>
</g>
<g id="Vector">
<use xlink:href="#path49_fill" transform="translate(-253.682 -115.536)" fill="#97999B"/>
</g>
<g id="Vector">
<use xlink:href="#path50_fill" transform="translate(-224.298 -42.8115)" fill="#97999B"/>
</g>
<g id="Vector">
<use xlink:href="#path51_fill" transform="translate(-220.681 -34.8155)" fill="#97999B"/>
</g>
<g id="Vector">
<use xlink:href="#path52_fill" transform="translate(-217.517 -27.9899)" fill="#97999B"/>
</g>
<g id="Vector">
<use xlink:href="#path53_fill" transform="translate(-270.708 -89.5818)" fill="#97999B"/>
</g>
<g id="Vector">
<use xlink:href="#path54_fill" transform="translate(-277.386 -92.0436)" fill="#97999B"/>
</g>
<g id="Vector">
<use xlink:href="#path55_fill" transform="translate(-282.9 -94.0022)" fill="#97999B"/>
</g>
<g id="Vector">
<use xlink:href="#path56_fill" transform="translate(-270.811 -62.2999)" fill="#97999B"/>
</g>
<g id="Vector">
<use xlink:href="#path57_fill" transform="translate(-277.539 -58.6657)" fill="#97999B"/>
</g>
<g id="Vector">
<use xlink:href="#path58_fill" transform="translate(-283.076 -55.5204)" fill="#97999B"/>
</g>
<g id="Vector">
<use xlink:href="#path59_fill" transform="translate(-251.591 -42.9179)" fill="#97999B"/>
</g>
<g id="Vector">
<use xlink:href="#path60_fill" transform="translate(-254.046 -34.9636)" fill="#97999B"/>
</g>
<g id="Vector">
<use xlink:href="#path61_fill" transform="translate(-256.01 -28.1811)" fill="#97999B"/>
</g>
<g id="Vector">
<use xlink:href="#path62_fill" transform="translate(-224.035 -108.707)" fill="#97999B"/>
</g>
<g id="Vector">
<use xlink:href="#path63_fill" transform="translate(-220.313 -115.387)" fill="#97999B"/>
</g>
<g id="Vector">
<use xlink:href="#path64_fill" transform="translate(-217.08 -120.895)" fill="#97999B"/>
</g>
</g>
</g>
</g>
<g id="Group">
<g id="Vector">
<use xlink:href="#path65_fill" transform="translate(53.755 -82.203)" fill="#53565A"/>
</g>
<g id="Vector">
<use xlink:href="#path66_fill" transform="translate(59.33 -82.204)" fill="#53565A"/>
</g>
</g>
</g>
</g>
<defs>
<path id="path0_fill" d="M 32.972 30.965C 32.395 30.965 31.826 31.21 31.391 31.639C 27.802 34.912 24.396 36.299 19.96 36.299C 11.648 36.299 5.142 29.341 5.142 20.461L 5.142 20.363C 5.142 11.384 11.498 4.62101 19.96 4.62101C 24.181 4.62101 27.564 5.985 31.034 9.047C 31.566 9.404 32.116 9.60099 32.617 9.60099C 33.963 9.60099 35.139 8.45801 35.139 7.14801C 35.139 6.15701 34.51 5.46499 34.137 5.14499C 31.075 2.59299 27.01 3.66211e-06 20.027 3.66211e-06C 8.80301 3.66211e-06 4.88281e-07 8.98599 4.88281e-07 20.459L 4.88281e-07 20.586C 4.88281e-07 32.182 8.534 40.925 19.845 40.925C 25.679 40.925 30.092 39.196 34.545 35.118C 35.049 34.674 35.354 34.005 35.354 33.345C 35.355 32.076 34.236 30.965 32.972 30.965Z"/>
<path id="path1_fill" d="M 14.113 -5.12695e-06C 6.18101 -5.12695e-06 1.2207e-06 6.70801 1.2207e-06 15.274L 1.2207e-06 15.394C 1.2207e-06 24.101 6.299 30.661 14.65 30.661C 19.113 30.661 22.527 29.298 25.714 26.238C 26.213 25.813 26.483 25.252 26.483 24.645C 26.483 23.481 25.502 22.532 24.308 22.532C 23.651 22.532 23.186 22.843 22.89 23.106C 20.497 25.311 17.852 26.373 14.768 26.373C 9.50801 26.373 5.582 22.688 4.926 17.173L 25.478 17.173C 26.754 17.173 27.758 16.139 27.758 14.895C 27.757 7.49201 23.081 -5.12695e-06 14.113 -5.12695e-06ZM 13.975 4.173C 19.841 4.173 22.414 8.91099 22.864 13.434L 4.92499 13.434C 5.58099 7.97099 9.28201 4.173 13.975 4.173Z"/>
<path id="path2_fill" d="M 2.395 6.83594e-06C 1.099 6.83594e-06 1.17188e-05 1.11601 1.17188e-05 2.45301L 1.17188e-05 39.066C 1.17188e-05 40.444 1.069 41.518 2.442 41.518C 3.811 41.518 4.835 40.452 4.835 39.066L 4.835 2.45301C 4.835 1.10401 3.734 6.83594e-06 2.395 6.83594e-06Z"/>
<path id="path3_fill" d="M 14.101 -5.12695e-06C 6.186 -5.12695e-06 -1.48926e-05 6.70801 -1.48926e-05 15.274L -1.48926e-05 15.394C -1.48926e-05 24.101 6.29301 30.661 14.667 30.661C 19.113 30.661 22.539 29.298 25.707 26.238C 26.203 25.813 26.473 25.252 26.473 24.645C 26.473 23.481 25.483 22.532 24.288 22.532C 23.639 22.532 23.189 22.843 22.882 23.106C 20.492 25.311 17.844 26.373 14.762 26.373C 9.50801 26.373 5.59901 22.688 4.93401 17.173L 25.458 17.173C 26.725 17.173 27.743 16.139 27.743 14.895C 27.744 7.49201 23.061 -5.12695e-06 14.101 -5.12695e-06ZM 13.98 4.173C 19.824 4.173 22.41 8.91099 22.881 13.434L 4.93401 13.434C 5.58401 7.97099 9.28 4.173 13.98 4.173Z"/>
<path id="path4_fill" d="M 13.24 12.896L 13.123 12.856C 9.46701 11.757 6.013 10.693 6.013 8.196L 6.013 8.07601C 6.013 5.78801 8.204 4.18001 11.319 4.18001C 13.63 4.18001 16.191 4.93899 18.715 6.37999C 18.912 6.47799 19.299 6.62801 19.786 6.62801C 20.987 6.62801 21.969 5.679 21.969 4.515C 21.969 3.708 21.516 2.94701 20.774 2.48201C 17.833 0.906013 14.435 -1.26953e-05 11.451 -1.26953e-05C 5.47998 -1.26953e-05 1.33401 3.49701 1.33401 8.51601L 1.33401 8.631C 1.33401 14.28 6.964 15.879 11.069 17.052C 15.049 18.156 18.059 19.212 18.059 21.86L 18.059 21.963C 18.059 24.546 15.777 26.263 12.375 26.263C 9.348 26.263 6.331 25.254 3.406 23.264C 3.081 23.007 2.63501 22.86 2.17801 22.86C 0.983005 22.86 -3.66211e-06 23.811 -3.66211e-06 24.975C -3.66211e-06 25.82 0.459988 26.458 0.890988 26.773C 4.11299 29.072 8.33399 30.451 12.142 30.451C 18.459 30.451 22.689 26.858 22.689 21.525L 22.689 21.41C 22.688 16.172 18.017 14.314 13.24 12.896Z"/>
<path id="path5_fill" d="M 16.281 13.032C 17.5 13.032 18.499 12.053 18.499 10.854C 18.499 9.68001 17.469 8.68101 16.281 8.68101L 9.07099 8.68101L 9.07099 2.447C 9.07099 1.118 7.95999 8.78906e-06 6.62599 8.78906e-06C 5.24799 8.78906e-06 4.22001 1.062 4.22001 2.447L 4.22001 8.68101L 2.158 8.68101C 0.983999 8.68101 9.0332e-06 9.68001 9.0332e-06 10.854C 9.0332e-06 12.003 1.004 13.032 2.158 13.032L 4.22001 13.032L 4.22001 30.14C 4.22001 35.574 7.22501 38.552 12.642 38.552C 14.283 38.552 15.632 38.323 16.988 37.763C 17.829 37.433 18.382 36.684 18.382 35.834C 18.382 34.692 17.429 33.714 16.283 33.714C 16.119 33.714 15.959 33.764 15.729 33.821C 15.293 33.938 14.62 34.1 13.648 34.1C 10.572 34.1 9.07301 32.637 9.07301 29.585L 9.07301 13.032L 16.281 13.032L 16.281 13.032Z"/>
<path id="path6_fill" d="M 2.402 1.46484e-05C 1.093 1.46484e-05 -3.17383e-06 1.11901 -3.17383e-06 2.44801L -3.17383e-06 27.483C -3.17383e-06 28.861 1.095 29.935 2.449 29.935C 3.839 29.935 4.867 28.869 4.867 27.483L 4.867 2.44801C 4.867 1.08201 3.76801 1.46484e-05 2.402 1.46484e-05Z"/>
<path id="path7_fill" d="M 24.528 22.202C 23.993 22.202 23.55 22.407 23.119 22.827C 20.668 25.149 18.091 26.27 15.272 26.27C 9.48401 26.27 4.94899 21.453 4.94899 15.324L 4.94899 15.224C 4.94899 9.12499 9.35701 4.33001 15.004 4.33001C 18.515 4.33001 20.861 6.053 22.681 7.747C 23.119 8.092 23.685 8.307 24.254 8.307C 25.553 8.307 26.587 7.258 26.587 5.962C 26.587 5.17 26.183 4.54099 25.838 4.24099C 22.65 1.36399 19.22 -5.12695e-06 15.067 -5.12695e-06C 6.742 -5.12695e-06 1.09863e-05 6.873 1.09863e-05 15.324L 1.09863e-05 15.444C 1.09863e-05 23.839 6.742 30.661 15.067 30.661C 19.393 30.661 22.915 29.173 26.116 25.956C 26.515 25.564 26.77 24.982 26.77 24.41C 26.77 23.231 25.731 22.202 24.528 22.202Z"/>
<path id="path8_fill" d="M 22.823 3.26901C 20.666 1.09901 17.478 -3.90625e-06 13.328 -3.90625e-06C 9.89497 -3.90625e-06 6.949 0.612009 3.793 1.96301C 3.113 2.23801 2.44901 3.03201 2.44901 4.01101C 2.44901 5.15701 3.45298 6.139 4.62698 6.139C 4.89698 6.139 5.19501 6.05601 5.50101 5.95401C 7.91401 4.85501 10.312 4.35 12.874 4.35C 18.232 4.35 21.189 7.047 21.189 11.927L 21.189 12.556C 18.981 11.964 16.389 11.43 12.603 11.43C 4.71 11.43 2.4414e-07 15.009 2.4414e-07 21.015L 2.4414e-07 21.142C 2.4414e-07 27.207 5.54397 30.378 11.039 30.378C 16.124 30.378 19.319 28.085 21.187 25.932L 21.187 27.776C 21.187 29.077 22.181 30.053 23.525 30.053C 24.864 30.053 25.869 29.019 25.869 27.653L 25.869 11.867C 25.869 8.184 24.845 5.27401 22.823 3.26901ZM 11.873 26.425C 8.49602 26.425 4.89401 24.73 4.89401 20.978L 4.89401 20.863C 4.89401 17.297 7.94599 15.164 13.041 15.164C 15.782 15.164 18.5 15.539 21.241 16.315L 21.241 18.9C 21.243 23.204 17.213 26.425 11.873 26.425Z"/>
<path id="path9_fill" d="M 2.77101 -7.8125e-06C 1.25001 -7.8125e-06 1.26953e-05 1.24899 1.26953e-05 2.76199C 1.26953e-05 4.27799 1.25101 5.514 2.77101 5.514C 4.26701 5.514 5.50999 4.27799 5.50999 2.76199C 5.51199 1.24899 4.26701 -7.8125e-06 2.77101 -7.8125e-06Z"/>
<path id="path10_fill" d="M 9.215 4.621C 9.215 7.161 7.165 9.22101 4.61 9.22101C 2.063 9.22101 1.2207e-06 7.16 1.2207e-06 4.621C 1.2207e-06 2.068 2.063 1.70898e-06 4.61 1.70898e-06C 7.164 1.70898e-06 9.215 2.068 9.215 4.621Z"/>
<path id="path11_fill" d="M 9.215 4.60999C 9.215 2.06699 7.165 9.0332e-06 4.61 9.0332e-06C 2.063 9.0332e-06 1.2207e-06 2.06699 1.2207e-06 4.60999C 1.2207e-06 7.16799 2.063 9.22001 4.61 9.22001C 7.164 9.22001 9.215 7.16799 9.215 4.60999Z"/>
<path id="path12_fill" d="M 4.60799 -3.90625e-06C 7.16299 -3.90625e-06 9.23099 2.06499 9.23099 4.60299C 9.23099 7.16499 7.16299 9.22601 4.60799 9.22601C 2.06799 9.22601 6.83594e-06 7.16599 6.83594e-06 4.60299C 6.83594e-06 2.06499 2.06799 -3.90625e-06 4.60799 -3.90625e-06Z"/>
<path id="path13_fill" d="M 7.87225 1.35975C 9.67525 3.15775 9.67525 6.07975 7.87225 7.86875C 6.06425 9.67175 3.14725 9.67175 1.34625 7.86875C -0.448754 6.07975 -0.448754 3.15875 1.34625 1.35975C 3.14625 -0.453248 6.06325 -0.453248 7.87225 1.35975Z"/>
<path id="path14_fill" d="M 7.86625 1.35226C 6.05825 -0.450736 3.15125 -0.450736 1.35825 1.35226C -0.452746 3.15526 -0.452746 6.07824 1.35825 7.87524C 3.15125 9.68024 6.05825 9.68024 7.86625 7.87524C 9.67725 6.07824 9.67725 3.15626 7.86625 1.35226Z"/>
<path id="path15_fill" d="M 1.347 1.35226C 3.148 -0.450736 6.065 -0.450736 7.873 1.35226C 9.676 3.15526 9.676 6.07824 7.873 7.87524C 6.065 9.68024 3.148 9.68024 1.347 7.87524C -0.449004 6.07824 -0.449004 3.15626 1.347 1.35226Z"/>
<path id="path16_fill" d="M 1.35825 1.35975C -0.452746 3.15775 -0.452746 6.07975 1.35825 7.86875C 3.15125 9.67175 6.05825 9.67175 7.86625 7.86875C 9.67725 6.07975 9.67725 3.15875 7.86625 1.35975C 6.05825 -0.453248 3.15125 -0.453248 1.35825 1.35975Z"/>
<path id="path17_fill" d="M 7.80199 3.916C 7.80199 6.059 6.04399 7.81401 3.89099 7.81401C 1.73799 7.81401 3.54004e-06 6.059 3.54004e-06 3.916C 3.54004e-06 1.748 1.73799 1.09863e-05 3.89099 1.09863e-05C 6.04399 1.09863e-05 7.80199 1.748 7.80199 3.916Z"/>
<path id="path18_fill" d="M 7.80199 3.89601C 7.80199 1.74901 6.04399 1.09863e-05 3.89099 1.09863e-05C 1.73799 1.09863e-05 3.54004e-06 1.74701 3.54004e-06 3.89601C 3.54004e-06 6.05401 1.73799 7.79701 3.89099 7.79701C 6.04399 7.79701 7.80199 6.05401 7.80199 3.89601Z"/>
<path id="path19_fill" d="M 3.908 -9.76562e-06C 6.054 -9.76562e-06 7.80901 1.73799 7.80901 3.88399C 7.80901 6.04399 6.053 7.77801 3.908 7.77801C 1.758 7.77801 -2.44141e-07 6.04499 -2.44141e-07 3.88399C -2.44141e-07 1.73799 1.757 -9.76562e-06 3.908 -9.76562e-06Z"/>
<path id="path20_fill" d="M 6.65975 1.13474C 8.19575 2.66574 8.19575 5.13775 6.65975 6.65675C 5.15375 8.17275 2.67175 8.17275 1.14975 6.65675C -0.383248 5.13775 -0.383248 2.66574 1.14975 1.13474C 2.67075 -0.378257 5.15375 -0.378257 6.65975 1.13474Z"/>
<path id="path21_fill" d="M 6.66326 1.14599C 5.13026 -0.382005 2.65725 -0.382005 1.13925 1.14599C -0.379755 2.66499 -0.379755 5.13901 1.13925 6.65301C 2.65825 8.18901 5.13026 8.18901 6.66326 6.65301C 8.16926 5.14101 8.16926 2.66499 6.66326 1.14599Z"/>
<path id="path22_fill" d="M 1.14975 1.14599C 2.67075 -0.382005 5.15375 -0.382005 6.65975 1.14599C 8.19575 2.66499 8.19575 5.13901 6.65975 6.65301C 5.15375 8.18901 2.67175 8.18901 1.14975 6.65301C -0.383248 5.14101 -0.383248 2.66499 1.14975 1.14599Z"/>
<path id="path23_fill" d="M 1.13924 1.13474C -0.379762 2.66574 -0.379762 5.13775 1.13924 6.65675C 2.65824 8.17275 5.13026 8.17275 6.66326 6.65675C 8.16926 5.13775 8.16926 2.66574 6.66326 1.13474C 5.13126 -0.378257 2.65824 -0.378257 1.13924 1.13474Z"/>
<path id="path24_fill" d="M 6.63758 2.12788C 7.34658 3.87788 6.51059 5.89686 4.75759 6.61586C 3.00959 7.35486 1.00659 6.51588 0.261589 4.76088C -0.462411 2.99988 0.366585 0.991864 2.12959 0.267864C 3.88759 -0.472136 5.90558 0.37688 6.63758 2.12788Z"/>
<path id="path25_fill" d="M 6.62847 2.10991C 5.89947 0.369907 3.89948 -0.462092 2.12048 0.260908C 0.377478 0.986908 -0.466523 2.99492 0.262476 4.76192C 0.987476 6.50992 3.00747 7.34891 4.77047 6.61891C 6.50847 5.89291 7.34447 3.87191 6.62847 2.10991Z"/>
<path id="path26_fill" d="M 2.11305 0.267923C 3.87605 -0.474077 5.89105 0.382925 6.62805 2.12592C 7.35505 3.88392 6.51104 5.89693 4.76504 6.61393C 2.99404 7.33693 0.981043 6.51091 0.259043 4.75291C -0.461957 2.99991 0.375047 0.992923 2.11305 0.267923Z"/>
<path id="path27_fill" d="M 4.76504 0.25345C 6.51104 0.99245 7.35505 3.00344 6.62805 4.76444C 5.89105 6.51444 3.87605 7.35643 2.11305 6.63043C 0.375047 5.89843 -0.461957 3.88546 0.259043 2.12946C 0.981043 0.371457 2.99404 -0.45555 4.76504 0.25345Z"/>
<path id="path28_fill" d="M 0.261589 2.10991C 1.00559 0.369907 3.00959 -0.462092 4.75759 0.260908C 6.51059 0.986908 7.34758 2.99492 6.63758 4.76192C 5.90658 6.50992 3.88759 7.34891 2.12959 6.61891C 0.366585 5.89291 -0.462411 3.87191 0.261589 2.10991Z"/>
<path id="path29_fill" d="M 0.262469 2.12788C -0.466531 3.87788 0.377471 5.89686 2.12047 6.61586C 3.89847 7.35486 5.89847 6.51588 6.62847 4.76088C 7.34547 2.99988 6.50846 0.991864 4.77046 0.267864C 3.00746 -0.472136 0.987469 0.37688 0.262469 2.12788Z"/>
<path id="path30_fill" d="M 6.376 3.199C 6.376 4.957 4.96199 6.376 3.20699 6.376C 1.44099 6.376 -6.95801e-06 4.957 -6.95801e-06 3.199C -6.95801e-06 1.43 1.44099 -5.57973e-06 3.20699 -5.57973e-06C 4.96199 -0.00100558 6.376 1.43 6.376 3.199Z"/>
<path id="path31_fill" d="M 4.95499 2.48C 4.95499 3.844 3.838 4.94501 2.482 4.94501C 1.108 4.94501 7.32422e-06 3.844 7.32422e-06 2.48C 7.32422e-06 1.111 1.109 0 2.482 0C 3.838 0 4.95499 1.111 4.95499 2.48Z"/>
<path id="path32_fill" d="M 3.522 1.75599C 3.522 2.73699 2.75 3.529 1.766 3.529C 0.787002 3.529 -4.5166e-06 2.73699 -4.5166e-06 1.75599C -4.5166e-06 0.791993 0.787002 -3.90625e-06 1.766 -3.90625e-06C 2.75 -3.90625e-06 3.522 0.791993 3.522 1.75599Z"/>
<path id="path33_fill" d="M 6.37799 3.20201C 6.37799 1.43801 4.94899 -1.29395e-05 3.18399 -1.29395e-05C 1.42099 -1.29395e-05 2.31934e-06 1.43801 2.31934e-06 3.20201C 2.31934e-06 4.94501 1.42099 6.38399 3.18399 6.38399C 4.94899 6.38399 6.37799 4.94501 6.37799 3.20201Z"/>
<path id="path34_fill" d="M 4.958 2.469C 4.958 1.096 3.85199 9.0332e-06 2.46999 9.0332e-06C 1.10899 9.0332e-06 6.83594e-06 1.096 6.83594e-06 2.469C 6.83594e-06 3.842 1.10899 4.94599 2.46999 4.94599C 3.85099 4.94499 4.958 3.842 4.958 2.469Z"/>
<path id="path35_fill" d="M 3.536 1.75801C 3.536 0.779008 2.75399 1.2207e-05 1.76299 1.2207e-05C 0.785993 1.2207e-05 7.56836e-06 0.778008 7.56836e-06 1.75801C 7.56836e-06 2.73801 0.786993 3.53599 1.76299 3.53599C 2.75499 3.53599 3.536 2.73701 3.536 1.75801Z"/>
<path id="path36_fill" d="M 5.42599 0.9345C 6.67899 2.1835 6.67899 4.20349 5.42599 5.43749C 4.19199 6.69649 2.169 6.6965 0.932997 5.4475C -0.311003 4.2035 -0.311003 2.1825 0.932997 0.9345C 2.17 -0.3115 4.19199 -0.3115 5.42599 0.9345Z"/>
<path id="path37_fill" d="M 4.22449 0.724632C 5.19849 1.68563 5.19849 3.25464 4.22449 4.22564C 3.26349 5.18664 1.6865 5.18662 0.730505 4.23562C -0.243495 3.25362 -0.243495 1.68262 0.730505 0.723625C 1.6875 -0.241375 3.26349 -0.241368 4.22449 0.724632Z"/>
<path id="path38_fill" d="M 3.01024 0.518996C 3.70424 1.211 3.69924 2.32 3.01024 3.007C 2.32124 3.709 1.21725 3.709 0.515249 3.007C -0.171751 2.32 -0.171751 1.196 0.515249 0.518996C 1.20425 -0.173004 2.33324 -0.173004 3.01024 0.518996Z"/>
<path id="path39_fill" d="M 5.44625 0.936749C 4.21025 -0.312251 2.18228 -0.312251 0.94128 0.936749C -0.32472 2.17675 -0.30272 4.20075 0.94128 5.44475C 2.18228 6.69575 4.20026 6.69575 5.42926 5.44475C 6.68526 4.20075 6.68525 2.17675 5.44625 0.936749Z"/>
<path id="path40_fill" d="M 4.22301 0.72374C 3.25701 -0.24126 1.68801 -0.24126 0.714008 0.72374C -0.237992 1.67674 -0.237992 3.26074 0.714008 4.22374C 1.68801 5.19374 3.25601 5.19374 4.22301 4.22374C 5.19201 3.26074 5.19201 1.70674 4.22301 0.72374Z"/>
<path id="path41_fill" d="M 3.187 1.12305e-05C 4.935 1.12305e-05 6.383 1.434 6.383 3.197C 6.383 4.955 4.935 6.38401 3.187 6.38401C 1.416 6.38401 -6.83594e-06 4.955 -6.83594e-06 3.197C -6.83594e-06 1.433 1.416 1.12305e-05 3.187 1.12305e-05Z"/>
<path id="path42_fill" d="M 2.487 -1.36719e-05C 3.841 -1.36719e-05 4.949 1.109 4.949 2.485C 4.949 3.839 3.84 4.95299 2.487 4.95299C 1.116 4.95299 -3.41797e-06 3.839 -3.41797e-06 2.485C -3.41797e-06 1.109 1.116 -1.36719e-05 2.487 -1.36719e-05Z"/>
<path id="path43_fill" d="M 1.76799 -5.37109e-06C 2.75199 -5.37109e-06 3.534 0.783995 3.534 1.763C 3.534 2.732 2.75299 3.52099 1.76799 3.52099C 0.806993 3.52099 3.05176e-06 2.732 3.05176e-06 1.763C 3.05176e-06 0.784995 0.806993 -5.37109e-06 1.76799 -5.37109e-06Z"/>
<path id="path44_fill" d="M 0.936 0.937749C 2.17 -0.311251 4.20301 -0.311247 5.43701 0.929753C 6.69001 2.18675 6.69001 4.20676 5.43701 5.44376C 4.19001 6.68676 2.17 6.68676 0.936 5.44376C -0.312001 4.19476 -0.312001 2.18675 0.936 0.937749Z"/>
<path id="path45_fill" d="M 0.736134 0.722997C 1.69513 -0.241003 3.25813 -0.241003 4.22713 0.722997C 5.19413 1.689 5.19413 3.265 4.22713 4.224C 3.25813 5.194 1.68713 5.19399 0.721134 4.22999C -0.242866 3.26499 -0.242866 1.687 0.736134 0.722997Z"/>
<path id="path46_fill" d="M 0.501752 0.524879C 1.22175 -0.174121 2.31475 -0.174126 3.01675 0.519874C 3.69375 1.21287 3.69375 2.32288 3.01675 3.01688C 2.31475 3.70588 1.22175 3.70988 0.501752 3.01688C -0.167248 2.32788 -0.167248 1.21488 0.501752 0.524879Z"/>
<path id="path47_fill" d="M 0.945498 0.931502C -0.313502 2.1755 -0.313481 4.19351 0.935519 5.43751C 2.17452 6.68651 4.19449 6.68651 5.43149 5.43751C 6.69049 4.19351 6.69049 2.17551 5.43149 0.937514C 4.19449 -0.311486 2.1845 -0.311498 0.945498 0.931502Z"/>
<path id="path48_fill" d="M 5.50325 1.79432C 6.09525 3.25032 5.39825 4.91634 3.93425 5.50834C 2.46625 6.10234 0.797247 5.40134 0.210247 3.93934C -0.383753 2.47634 0.325256 0.807345 1.77826 0.215345C 3.24026 -0.389655 4.90125 0.325324 5.50325 1.79432Z"/>
<path id="path49_fill" d="M 4.28148 1.38465C 4.73348 2.51565 4.19148 3.80966 3.05248 4.28166C 1.92648 4.73166 0.627487 4.19166 0.163487 3.06066C -0.301513 1.91966 0.263485 0.63366 1.37648 0.16366C 2.53348 -0.29634 3.82148 0.245653 4.28148 1.38465Z"/>
<path id="path50_fill" d="M 5.51092 1.78654C 4.91092 0.322536 3.2509 -0.383453 1.7849 0.210547C 0.328902 0.805547 -0.391098 2.48154 0.215902 3.93854C 0.817902 5.38454 2.4739 6.11052 3.9399 5.49552C 5.3959 4.90452 6.09792 3.24254 5.51092 1.78654Z"/>
<path id="path51_fill" d="M 4.28386 1.3895C 3.82886 0.2465 2.53283 -0.294497 1.39183 0.161503C 0.249829 0.625503 -0.299161 1.9195 0.164839 3.0535C 0.631839 4.1935 1.92783 4.74251 3.06483 4.28751C 4.19183 3.81751 4.75386 2.5185 4.28386 1.3895Z"/>
<path id="path52_fill" d="M 3.04581 0.976868C 2.71581 0.177868 1.79679 -0.215127 0.977786 0.119873C 0.181786 0.432873 -0.213207 1.36788 0.116793 2.17288C 0.446793 2.98288 1.36579 3.36587 2.17679 3.04187C 2.98079 2.71487 3.37281 1.79587 3.04581 0.976868Z"/>
<path id="path53_fill" d="M 3.97175 0.225868C 5.42575 0.834869 6.11475 2.50885 5.49975 3.96485C 4.87475 5.41885 3.19475 6.10285 1.74375 5.48585C 0.290753 4.86885 -0.384244 3.18585 0.222756 1.73685C 0.846757 0.287855 2.51075 -0.386131 3.97175 0.225868Z"/>
<path id="path54_fill" d="M 3.09463 0.169586C 4.21363 0.651586 4.75062 1.94459 4.26562 3.08459C 3.78162 4.21259 2.49464 4.73758 1.35564 4.27258C 0.226636 3.78858 -0.305375 2.4796 0.179625 1.3606C 0.649625 0.232596 1.95563 -0.297414 3.09463 0.169586Z"/>
<path id="path55_fill" d="M 2.2052 0.128199C 3.0122 0.462199 3.3792 1.39219 3.0372 2.19119C 2.6982 2.99519 1.7712 3.3842 0.959197 3.0202C 0.165197 2.6952 -0.217803 1.7812 0.127197 0.969203C 0.475197 0.158203 1.4132 -0.216801 2.2052 0.128199Z"/>
<path id="path56_fill" d="M 1.77705 0.20889C 3.23505 -0.38011 4.91105 0.318909 5.49805 1.77191C 6.08705 3.24591 5.39804 4.91389 3.93504 5.50689C 2.46704 6.09689 0.803051 5.39291 0.214051 3.93991C -0.387949 2.46891 0.326054 0.80789 1.77705 0.20889Z"/>
<path id="path57_fill" d="M 1.38541 0.166706C 2.51441 -0.299294 3.81242 0.245704 4.28042 1.3777C 4.73942 2.5147 4.19342 3.82169 3.05642 4.27269C 1.93242 4.72769 0.626412 4.1827 0.152412 3.0457C -0.285588 1.9147 0.249413 0.615706 1.38541 0.166706Z"/>
<path id="path58_fill" d="M 0.978049 0.11743C 1.79705 -0.21257 2.71605 0.177414 3.04105 0.981414C 3.37605 1.79041 2.98906 2.70942 2.16006 3.04742C 1.35806 3.36742 0.439051 2.98442 0.127051 2.17642C -0.220949 1.36042 0.173049 0.43943 0.978049 0.11743Z"/>
<path id="path59_fill" d="M 0.231654 1.73097C 0.848654 0.287971 2.51965 -0.387058 3.97065 0.226942C 5.43165 0.835942 6.09566 2.52197 5.49366 3.96797C 4.86466 5.41997 3.19866 6.10997 1.74966 5.48897C 0.296659 4.86797 -0.395346 3.19997 0.231654 1.73097Z"/>
<path id="path60_fill" d="M 0.171936 1.35264C 0.656936 0.218645 1.94993 -0.311357 3.07893 0.188643C 4.22293 0.653643 4.73694 1.95765 4.26994 3.08565C 3.78294 4.19865 2.48693 4.74864 1.35493 4.27064C 0.233935 3.79064 -0.300064 2.48164 0.171936 1.35264Z"/>
<path id="path61_fill" d="M 0.129922 0.969055C 0.466922 0.159055 1.39893 -0.218934 2.21093 0.130066C 3.01493 0.469066 3.38493 1.38908 3.03993 2.19208C 2.71293 3.00208 1.77592 3.38407 0.976922 3.03607C 0.167922 2.69107 -0.222078 1.77206 0.129922 0.969055Z"/>
<path id="path62_fill" d="M 0.231081 1.75107C -0.390919 3.20207 0.286067 4.88305 1.74207 5.49505C 3.19007 6.11705 4.88808 5.42306 5.50308 3.97406C 6.11208 2.51606 5.41807 0.847055 3.96207 0.228055C 2.50807 -0.391945 0.835081 0.297065 0.231081 1.75107Z"/>
<path id="path63_fill" d="M 0.170422 1.36265C -0.296578 2.49165 0.227401 3.79566 1.3614 4.26666C 2.4784 4.74466 3.78441 4.22166 4.26341 3.08566C 4.74241 1.95666 4.2184 0.655661 3.0944 0.178661C 1.9514 -0.305339 0.662422 0.228651 0.170422 1.36265Z"/>
<path id="path64_fill" d="M 0.125666 0.961594C -0.213334 1.77859 0.153644 2.7046 0.984644 3.0396C 1.77364 3.3696 2.69766 3.0016 3.04266 2.1956C 3.38766 1.3936 3.00267 0.466595 2.20367 0.127595C 1.39167 -0.217405 0.472666 0.162594 0.125666 0.961594Z"/>
<path id="path65_fill" d="M 2.036 0.723992L -7.32422e-06 0.723992L -7.32422e-06 -6.83594e-06L 4.90502 -6.83594e-06L 4.90502 0.723992L 2.86901 0.723992L 2.86901 5.94L 2.036 5.94L 2.036 0.723992L 2.036 0.723992Z"/>
<path id="path66_fill" d="M 0.476018 -1.3916e-05L 1.35102 -1.3916e-05L 2.71399 3.21401C 2.84899 3.54201 3.00898 4.01299 3.00898 4.01299L 3.02601 4.01299C 3.02601 4.01299 3.18599 3.54201 3.32099 3.21401L 4.68299 -1.3916e-05L 5.55799 -1.3916e-05L 6.03803 5.93999L 5.21399 5.93999L 4.91901 2.196C 4.89401 1.834 4.91102 1.321 4.91102 1.321L 4.89399 1.321C 4.89399 1.321 4.71702 1.868 4.57502 2.196L 3.38898 4.87099L 2.64899 4.87099L 1.47101 2.196C 1.33601 1.876 1.15101 1.304 1.15101 1.304L 1.13501 1.304C 1.13501 1.304 1.14299 1.834 1.11799 2.196L 0.831975 5.93999L 4.88281e-06 5.93999L 0.476018 -1.3916e-05Z"/>
</defs>
</svg>
